<svg xmlns="http://www.w3.org/2000/svg" viewBox="0 0 32 32" fill="none">
  <defs>
    <linearGradient id="bg" x1="0%" y1="0%" x2="100%" y2="100%">
      <stop offset="0%" stop-color="#4F46E5" />
      <stop offset="100%" stop-color="#312E81" />
    </linearGradient>
    <linearGradient id="gold" x1="0%" y1="0%" x2="100%" y2="100%">
      <stop offset="0%" stop-color="#FDE047" />
      <stop offset="100%" stop-color="#EAB308" />
    </linearGradient>
  </defs>

  <!-- Background Base -->
  <rect width="32" height="32" rx="8" fill="url(#bg)" />

  <!-- Center Pillar & Base -->
  <path d="M16 6.5V25" stroke="#FFFFFF" stroke-width="1.75" stroke-linecap="round" />
  <path d="M11 25.5H21" stroke="#FFFFFF" stroke-width="1.75" stroke-linecap="round" />

  <!-- Horizontal Beam -->
  <path d="M7.5 10.5H24.5" stroke="#FFFFFF" stroke-width="1.75" stroke-linecap="round" />

  <!-- Central Pivot -->
  <circle cx="16" cy="6.5" r="1.5" fill="url(#gold)" />

  <!-- Left Scale Pan -->
  <path d="M7.5 10.5L5 16.5M7.5 10.5L10 16.5" stroke="#E0E7FF" stroke-width="1" stroke-linecap="round" />
  <path d="M4 16.5C4 18.5 6 19.5 7.5 19.5C9 19.5 11 18.5 11 16.5H4Z" fill="url(#gold)" />

  <!-- Right Scale Pan -->
  <path d="M24.5 10.5L22 16.5M24.5 10.5L27 16.5" stroke="#E0E7FF" stroke-width="1" stroke-linecap="round" />
  <path d="M21 16.5C21 18.5 23 19.5 24.5 19.5C26 19.5 28 18.5 28 16.5H21Z" fill="url(#gold)" />
</svg>
